<svg height='25px' width='25px'  fill="#a600ff" xmlns="http://www.w3.org/2000/svg" xmlns:xlink="http://www.w3.org/1999/xlink" xml:space="preserve" style="shape-rendering:geometricPrecision;text-rendering:geometricPrecision;image-rendering:optimizeQuality;" viewBox="0 0 20.4772 20.4773" x="0px" y="0px" fill-rule="evenodd" clip-rule="evenodd"><defs><style type="text/css">
   
    .fil0 {fill:#a600ff}
   
  </style></defs><g><path class="fil0" d="M10.2386 0c5.6546,0 10.2386,4.584 10.2386,10.2386 0,5.6547 -4.584,10.2387 -10.2386,10.2387 -5.6546,0 -10.2386,-4.584 -10.2386,-10.2387 0,-5.6546 4.584,-10.2386 10.2386,-10.2386zm0 0.6798c5.2792,0 9.5588,4.2797 9.5588,9.5588 0,5.2792 -4.2796,9.5589 -9.5588,9.5589 -5.2792,0 -9.5588,-4.2797 -9.5588,-9.5589 0,-5.2791 4.2796,-9.5588 9.5588,-9.5588z"></path><path class="fil0" d="M10.2386 1.5295c4.8099,0 8.7091,3.8992 8.7091,8.7091 0,4.81 -3.8992,8.7092 -8.7091,8.7092 -4.8099,0 -8.7092,-3.8992 -8.7092,-8.7092 0,-4.8099 3.8993,-8.7091 8.7092,-8.7091z"></path></g></svg>